<svg id="Layer_1" data-name="Layer 1" xmlns="http://www.w3.org/2000/svg" viewBox="0 0 580 432"><title>Artboard 1 copy 8</title><path d="M163.45,301.18c-8.22,0-15.27,2.84-19.86,8l-.53.59-.5-.62c-4.19-5.21-10.23-8-17.48-8-7.54,0-14.13,2.37-18.54,6.67l-.66.65-.42-.83c-2.06-4.12-6.47-6.49-12.11-6.49a20.25,20.25,0,0,0-6.63,1.08c-.68.23-.9.58-.9,1.4v7.87a.61.61,0,0,0,.16.5,1.55,1.55,0,0,0,1.12.18,30.08,30.08,0,0,1,3.22-.34c3.58,0,5.4,1.63,5.4,4.84v38.48a.92.92,0,0,0,1,1h10.35a.92.92,0,0,0,1-1V326.05c0-8.61,5.65-14.4,14.07-14.4,7.94,0,13.27,6.1,13.27,15.18v28.36a.92.92,0,0,0,1,1H146.8a.92.92,0,0,0,1-1V326.05c0-8.61,5.11-14.4,12.71-14.4,8.68,0,14.51,6.1,14.51,15.18v28.36a.93.93,0,0,0,1,1H186.4a.93.93,0,0,0,1-1V326.05C187.42,311.18,177.79,301.18,163.45,301.18Z"/><path d="M266.21,346.16a1.2,1.2,0,0,0-.92-.1h0a20.86,20.86,0,0,1-4.29.46,4.52,4.52,0,0,1-4.61-4.83V303.62a.92.92,0,0,0-1-1H245a.92.92,0,0,0-1,1v28.73c0,8.48-6.29,14.4-15.3,14.4-8.68,0-14.51-6.11-14.51-15.19V303.62a.92.92,0,0,0-1-1H202.82a.92.92,0,0,0-1,1v28.73c0,14.87,9.63,24.86,24,24.86,7.69,0,14.23-2.12,18.92-6.13l.59-.51.42.66c2.39,3.8,7.26,6,13.38,6a23.74,23.74,0,0,0,7.44-1.31,1.09,1.09,0,0,0,.89-1.31l-.9-7.76A.87.87,0,0,0,266.21,346.16Z"/><path d="M341.93,346.16a1.23,1.23,0,0,0-.93-.1h0a20.71,20.71,0,0,1-4.28.46,4.52,4.52,0,0,1-4.61-4.83V277.62a.93.93,0,0,0-1-1H320.62a.93.93,0,0,0-1,1v29l-1.06-.74a26.29,26.29,0,0,0-15.36-4.72c-17.16,0-29.14,11.52-29.14,28s12,28,29.14,28a25.77,25.77,0,0,0,18.12-6.8l.66-.59.39.8c2,4.19,6.58,6.59,12.44,6.59a23.85,23.85,0,0,0,7.45-1.31,1.11,1.11,0,0,0,.89-1.31l-.9-7.76A.94.94,0,0,0,341.93,346.16Zm-38.64,1.15c-9.78,0-16.88-7.62-16.88-18.11s7.1-18.11,16.88-18.11,16.43,7.44,16.43,18.11S313,347.31,303.29,347.31Z"/><path d="M355.27,302.68h10.35a1,1,0,0,1,1,1v51.39a1,1,0,0,1-1,1H355.27a1,1,0,0,1-1-1v-51.4A1,1,0,0,1,355.27,302.68Z"/><path d="M415.22,345.49a40.77,40.77,0,0,1-9,1c-6.19,0-10.35-4.34-10.35-10.79V312.2h19.8a.92.92,0,0,0,1-1v-7.54a.92.92,0,0,0-1-1h-19.8V287.23a.92.92,0,0,0-1-1H384.47a.93.93,0,0,0-1,1v48.94c0,12.59,8.5,21,21.15,21a54.64,54.64,0,0,0,12.32-1.78,1.06,1.06,0,0,0,.85-1.29l-1.35-7.84A.91.91,0,0,0,415.22,345.49Z"/><path d="M493,346.16a1.2,1.2,0,0,0-.92-.1,21,21,0,0,1-4.3.46,4.52,4.52,0,0,1-4.61-4.83V303.62a.92.92,0,0,0-1-1H471.78a.92.92,0,0,0-1,1v3.15l-1.07-.76a25.86,25.86,0,0,0-15.47-4.83c-17.15,0-29.14,11.52-29.14,28s12,28,29.14,28a26.06,26.06,0,0,0,18.12-6.8l.67-.59.38.8c2.05,4.19,6.58,6.59,12.45,6.59a23.74,23.74,0,0,0,7.44-1.31,1.09,1.09,0,0,0,.89-1.31l-.9-7.77A.86.86,0,0,0,493,346.16Zm-38.63,1.15c-9.78,0-16.88-7.62-16.88-18.11s7.1-18.11,16.88-18.11,16.42,7.44,16.42,18.11S464,347.31,454.34,347.31Z"/><path d="M360.57,277a6.84,6.84,0,1,0,6.84,6.84A6.84,6.84,0,0,0,360.57,277Z"/><path d="M377.94,179.81a5.93,5.93,0,0,0-1.48-1.85,55.79,55.79,0,0,0-54.62-9.4,75.09,75.09,0,0,0-28.37-58.85,5.85,5.85,0,0,0-7.29,0,75.06,75.06,0,0,0-28.37,58.72A55.81,55.81,0,0,0,203.54,178a5.93,5.93,0,0,0-1.48,1.85,5.78,5.78,0,0,0-1.17,3.48,56.69,56.69,0,0,0,56.63,56.63A55.88,55.88,0,0,0,290,229.62a55.88,55.88,0,0,0,32.48,10.3,56.69,56.69,0,0,0,56.63-56.63A5.78,5.78,0,0,0,377.94,179.81ZM289.83,122a63.69,63.69,0,0,1,0,93.3,63.67,63.67,0,0,1,0-93.3Zm-77.14,63.7a44.11,44.11,0,0,1,46.23-4.11,74.86,74.86,0,0,0,21.18,40.55,44.38,44.38,0,0,1-22.58,6.12A45,45,0,0,1,212.69,185.68Zm109.79,42.56A44.39,44.39,0,0,1,299.69,222a74.84,74.84,0,0,0,21-40.21,44.07,44.07,0,0,1,46.62,3.9A45,45,0,0,1,322.48,228.24Z"/><path d="M377,143.67a1.23,1.23,0,0,0,1.19-1.55,91.62,91.62,0,0,0-176.69,0,1.24,1.24,0,0,0,1.19,1.55h9.61a1.21,1.21,0,0,0,1.16-.86,80,80,0,0,1,152.77,0,1.22,1.22,0,0,0,1.16.86Z"/></svg>